<svg width="128" height="128" viewBox="0 0 128 128" fill="none" xmlns="http://www.w3.org/2000/svg">
<path d="M118.183 91.1578C115.52 90.8984 106.166 87.0855 108.829 75.9042C110.511 76.2027 111.698 76.4804 111.698 76.4804L116.622 70.7898L99.5904 13.522L97.1963 43.889L84.2144 0L82.2453 35.9711C82.2453 35.9711 60.3992 9.56301 26.4092 38.3985C29.8836 36.9056 36.198 36.2039 44.1315 40.0167C24.3502 43.6293 2.36957 56.5452 10.8835 97.2276C10.8835 97.2276 11.928 86.4196 20.4419 82.5472C20.4419 101.954 37.2963 129.066 69.6763 127.968C29.0726 116.644 28.4352 66.4844 60.5249 62.5553C64.9271 62.2061 67.0698 62.7285 69.0957 63.4212C64.7505 63.4212 57.7059 63.2092 52.4928 71.8377C50.8708 71.6466 48.3599 71.2615 48.3599 71.2615L51.9511 73.4948C51.9511 73.4948 48.9016 82.6249 52.5317 89.8293C45.5409 91.0625 43.494 91.4091 43.494 91.4091L58.4391 93.9909C58.4391 93.9909 61.4108 99.8847 64.7236 103.199C61.0935 105.394 54.5666 109.17 54.5666 109.17L70.8255 106.358C70.8255 106.358 74.3388 116.99 84.9176 124.77C86.4648 124.155 90.442 122.537 92.6805 120.841C88.3173 118.154 80.2791 112.452 73.7971 98.1112C72.8335 98.7299 69.5895 100.5 69.5895 100.5C69.5895 100.5 64.5021 96.1082 61.2491 88.3275C59.5882 88.626 56.2664 89.3277 56.2664 89.3277C56.2664 89.3277 52.6753 81.0067 55.9971 72.608L55.2429 72.4348C55.2429 72.4348 59.9923 63.7108 71.3761 64.693C72.244 64.693 70.5352 69.8075 63.296 69.6343C63.296 69.6343 62.8023 74.1397 71.1127 75.2085C71.1127 75.9042 67.8418 78.648 63.4397 78.1941C66.8004 90.2442 85.2169 84.7238 90.9538 94.8091C96.5619 104.662 90.4032 106.047 97.5854 117.142C98.6268 113.858 102.509 107.588 111.863 108.821C111.863 107.809 112.41 100.414 120 98.0432C119.662 97.3709 117.693 93.8185 118.183 91.1578ZM99.8507 77.1253C99.1865 77.1253 96.2327 76.3162 96.2327 74.1785C96.0592 70.3926 98.549 70.8256 98.2018 64.4423C102.227 66.5322 101.548 75.8385 103.661 80.926C101.099 80.0931 99.8507 77.1163 99.8507 77.1163V77.1253Z" fill="white"/>
</svg>
