<svg width="760" height="140" viewBox="0 0 760 140" fill="none" xmlns="http://www.w3.org/2000/svg">
<g opacity="0.7">
<path d="M0 30.8306V61.2175L1.84705 65.0001L3.6941 68.7827V79.248V89.7132L1.84705 93.4958L0 97.2784V113.418V129.557H31.523H63.046L66.3215 127.892L69.5723 126.228L72.8477 127.892L76.0985 129.557H101.095H126.092V103.961V78.3653L124.467 75.0114L122.841 71.6827L124.467 68.3288L126.092 65.0001V32.7219V0.443604H118.211H110.331L107.129 2.08273L103.927 3.72186L100.726 2.08273L97.5243 0.443604H82.1322H66.7401L63.046 2.33491L59.3519 4.22621H49.1316H38.9112L35.2171 2.33491L31.523 0.443604H15.7615H0V30.8306ZM66.3215 51.408C86.5405 66.9671 103.263 79.8784 103.484 80.1053C103.878 80.4836 103.78 81.3158 102.056 93.6219C101.071 100.809 100.233 106.735 100.233 106.785C100.233 106.836 96.884 106.836 92.7959 106.811L85.3584 106.735L80.63 101.061L75.8769 95.3871L74.9164 91.2767C74.3746 89.0071 73.9067 87.141 73.8574 87.0906C73.8082 87.0401 72.0843 86.2836 70.0156 85.401L66.2722 83.7871L44.1815 57.208L22.1154 30.6288L25.7602 26.8966C27.7797 24.8288 29.4543 23.1393 29.5036 23.1393C29.5282 23.1393 46.1024 35.874 66.3215 51.408ZM98.4602 28.7627L103.927 34.361L103.878 45.6584L103.804 56.9306L87.304 40.0349L70.8036 23.1393H81.886H92.9683L98.4602 28.7627ZM44.4031 106.811L33.3701 106.861L27.7797 101.137L22.1646 95.3871V84.0393V72.7167L38.7881 89.7132L55.4115 106.735L44.4031 106.811Z" fill="#BBDD00"/>
<path d="M196.577 114.45C189.936 114.45 184.052 113.03 178.924 110.19C173.881 107.263 169.93 103.218 167.072 98.0531C164.298 92.8023 162.911 86.734 162.911 79.8481V56.6078C162.911 49.7219 164.298 43.6965 167.072 38.532C169.93 33.2813 173.881 29.2358 178.924 26.3953C184.052 23.4688 189.936 22.0055 196.577 22.0055H209.943C216.584 22.0055 222.426 23.4688 227.47 26.3953C232.598 29.2358 236.548 33.2813 239.322 38.532C242.181 43.6965 243.61 49.7219 243.61 56.6078V79.8481C243.61 86.734 242.181 92.8023 239.322 98.0531C236.548 103.218 232.598 107.263 227.47 110.19C222.426 113.03 216.584 114.45 209.943 114.45H196.577ZM209.943 98.6986C214.819 98.6986 218.728 96.8911 221.67 93.2759C224.696 89.6607 226.209 84.9264 226.209 79.0735V57.3825C226.209 51.5295 224.696 46.7952 221.67 43.18C218.728 39.5649 214.819 37.7573 209.943 37.7573H196.577C191.701 37.7573 187.751 39.5649 184.725 43.18C181.783 46.7952 180.311 51.5295 180.311 57.3825V79.0735C180.311 84.9264 181.783 89.6607 184.725 93.2759C187.751 96.8911 191.701 98.6986 196.577 98.6986H209.943ZM256.172 48.9901H272.06V55.9622C273.825 53.5519 276.053 51.6152 278.743 50.1521C281.517 48.689 284.207 47.9572 286.813 47.9572H294.757C299.8 47.9572 304.255 49.033 308.122 51.185C311.989 53.2508 314.973 56.1776 317.075 59.9647C319.177 63.7519 320.227 68.0988 320.227 73.0051V87.4658C320.227 92.8023 319.177 97.5366 317.075 101.668C314.973 105.714 312.031 108.856 308.248 111.093C304.466 113.331 300.094 114.45 295.135 114.45H286.939C284.585 114.45 282.147 113.891 279.626 112.772C277.188 111.653 275.086 110.147 273.321 108.253V139.24H256.172V48.9901ZM292.865 99.3442C295.976 99.3442 298.455 98.1393 300.305 95.729C302.154 93.3188 303.079 90.1343 303.079 86.1747V74.2963C303.079 70.9393 302.112 68.228 300.179 66.1622C298.329 64.0963 295.85 63.0634 292.739 63.0634H285.047C282.61 63.0634 280.298 64.0963 278.112 66.1622C275.927 68.1417 274.33 70.724 273.321 73.9089V86.6911C273.741 90.4783 275.002 93.5341 277.104 95.8582C279.289 98.1822 281.937 99.3442 285.047 99.3442H292.865ZM356.733 114.45C351.437 114.45 346.73 113.46 342.61 111.481C338.576 109.415 335.423 106.575 333.154 102.959C330.884 99.258 329.749 95.0406 329.749 90.3063V73.6507C329.749 68.5724 330.884 64.0963 333.154 60.223C335.423 56.3496 338.576 53.3371 342.61 51.185C346.73 49.033 351.437 47.9572 356.733 47.9572H366.82C374.89 47.9572 381.363 50.2812 386.238 54.9293C391.114 59.5774 393.552 65.7748 393.552 73.5216V87.2076H346.898V90.3063C346.898 93.1468 347.78 95.4279 349.545 97.1493C351.311 98.8706 353.707 99.7315 356.733 99.7315H366.568C369.51 99.7315 371.864 99.086 373.629 97.7948C375.479 96.4175 376.403 94.6533 376.403 92.5012H393.299C393.299 96.8048 392.165 100.635 389.895 103.992C387.625 107.349 384.431 109.931 380.312 111.739C376.277 113.547 371.612 114.45 366.316 114.45H356.733ZM376.655 74.5545V73.5216C376.655 70.1647 375.773 67.4962 374.007 65.5166C372.242 63.4508 369.888 62.4179 366.946 62.4179H356.733C353.707 62.4179 351.269 63.4936 349.419 65.6457C347.57 67.7978 346.645 70.6382 346.645 74.1672V74.5545H376.655ZM405.168 48.9901H421.055V56.7369C422.905 54.0684 425.301 51.9597 428.243 50.4104C431.185 48.7748 434.127 47.9572 437.069 47.9572H444.635C451.359 47.9572 456.739 50.1093 460.774 54.4129C464.894 58.7165 466.953 64.3974 466.953 71.4558V113.418H449.804V72.1014C449.804 69.4328 449.09 67.2813 447.661 65.6457C446.316 64.0101 444.55 63.1926 442.365 63.1926H434.799C431.857 63.1926 429.21 64.3117 426.856 66.5495C424.586 68.7015 423.073 71.542 422.316 75.071V113.418H405.168V48.9901ZM493.507 113.418C489.894 113.418 486.952 112.298 484.683 110.061C482.413 107.823 481.278 104.896 481.278 101.281V23.0384H523.395C530.118 23.0384 536.004 24.3295 541.048 26.9118C546.175 29.4941 550.125 33.1522 552.898 37.8864C555.755 42.6207 557.184 48.0863 557.184 54.2838V79.5899C557.184 90.6936 554.371 99.1288 548.736 104.896C543.107 110.577 534.827 113.418 523.897 113.418H493.507ZM523.395 97.6657C528.773 97.6657 532.852 96.0735 535.625 92.8886C538.398 89.7036 539.787 85.0127 539.787 78.8152V55.0584C539.787 50.1521 538.23 46.2359 535.117 43.3091C532.009 40.2967 527.931 38.7902 522.887 38.7902H498.679V97.6657H523.395ZM593.647 114.45C588.347 114.45 583.643 113.418 579.52 111.352C575.487 109.2 572.334 106.187 570.064 102.314C567.882 98.4404 566.788 93.9643 566.788 88.886V73.7798C566.788 68.7015 567.921 64.2255 570.192 60.3521C572.462 56.3924 575.615 53.3371 579.649 51.185C583.766 49.033 588.475 47.9572 593.77 47.9572H605.118C610.413 47.9572 615.082 49.033 619.116 51.185C623.234 53.3371 626.431 56.3924 628.696 60.3521C630.967 64.2255 632.105 68.7015 632.105 73.7798V88.886C632.105 93.9643 630.967 98.4404 628.696 102.314C626.431 106.187 623.234 109.2 619.116 111.352C615.082 113.418 610.374 114.45 604.995 114.45H593.647ZM604.739 99.3442C607.852 99.3442 610.329 98.2684 612.181 96.1164C614.028 93.8786 614.954 90.9947 614.954 87.4658V74.9418C614.954 71.4129 614.028 68.5724 612.181 66.4204C610.329 64.1826 607.891 63.0634 604.867 63.0634H594.021C590.997 63.0634 588.559 64.1826 586.712 66.4204C584.86 68.5724 583.934 71.4129 583.934 74.9418V87.4658C583.934 90.9947 584.86 93.8786 586.712 96.1164C588.559 98.2684 590.953 99.3442 593.898 99.3442H604.739ZM670.927 113.418C663.529 113.418 658.106 111.696 654.659 108.253C651.211 104.81 649.492 99.4733 649.492 92.243V63.9672H638.395V48.9901H649.994V29.494H666.637V48.9901H683.029V63.9672H666.637V91.4683C666.637 93.8786 667.061 95.6428 667.898 96.7619C668.824 97.8811 670.253 98.4404 672.188 98.4404H683.029V113.418H670.927ZM713.602 114.45C707.041 114.45 701.746 112.772 697.712 109.415C693.678 106.058 691.659 101.625 691.659 96.1164V91.3392C691.659 85.9164 693.762 81.5695 697.963 78.2988C702.17 74.9418 707.716 73.2634 714.606 73.2634H722.3C724.487 73.2634 726.841 73.5645 729.363 74.1672C731.885 74.7699 734.195 75.5874 736.298 76.6203V69.9064C736.298 67.7544 735.584 66.033 734.151 64.7419C732.806 63.3645 730.998 62.6761 728.733 62.6761H717.887C715.532 62.6761 713.641 63.2354 712.213 64.3546C710.784 65.4737 710.07 66.9797 710.07 68.8735H693.427C693.427 62.5899 695.653 57.5544 700.106 53.7673C704.647 49.8939 710.572 47.9572 717.887 47.9572H728.733C736.126 47.9572 742.095 49.9802 746.637 54.0255C751.173 57.9852 753.444 63.2788 753.444 69.9064V113.418H737.559V105.671C735.54 108.339 733.062 110.491 730.117 112.126C727.176 113.676 724.275 114.45 721.418 114.45H713.602ZM722.679 101.023C725.787 101.023 728.56 100.205 730.998 98.5695C733.436 96.9339 735.205 94.739 736.298 91.9848V89.7898C734.953 88.7569 733.062 87.9394 730.624 87.3367C728.27 86.734 725.748 86.4329 723.059 86.4329H715.114C713.094 86.4329 711.454 86.9493 710.193 87.9823C708.932 89.0152 708.302 90.3925 708.302 92.1139V95.4708C708.302 97.1064 708.977 98.4404 710.321 99.4733C711.75 100.506 713.602 101.023 715.867 101.023H722.679Z" fill="white"/>
</g>
</svg>
