<svg width="24" height="24" viewBox="0 0 24 24" fill="none" xmlns="http://www.w3.org/2000/svg">
<path fill-rule="evenodd" clip-rule="evenodd" d="M12 8.00005C12.5523 8.00005 13 8.44776 13 9.00005V13C13 13.5523 12.5523 14 12 14C11.4477 14 11 13.5523 11 13V9.00005C11 8.44776 11.4477 8.00005 12 8.00005Z" fill="white"/>
<path d="M13 16C13 16.5523 12.5523 17 12 17C11.4477 17 11 16.5523 11 16C11 15.4478 11.4477 15 12 15C12.5523 15 13 15.4478 13 16Z" fill="white"/>
<path fill-rule="evenodd" clip-rule="evenodd" d="M7.00385 21H16.9961C19.9782 21 21.9117 17.8544 20.565 15.1937L15.5689 5.32255C14.0885 2.3977 9.91147 2.39768 8.43109 5.32255L3.43495 15.1937C2.08827 17.8544 4.02175 21 7.00385 21ZM10.2155 6.22573L5.2194 16.0968C4.54606 17.4272 5.51281 19 7.00385 19H16.9961C18.4872 19 19.4539 17.4272 18.7806 16.0968L13.7845 6.22573C13.0443 4.7633 10.9557 4.7633 10.2155 6.22573Z" fill="white"/>
</svg>
